<svg xmlns="http://www.w3.org/2000/svg" width="166" height="166" viewBox="0 0 166 166">
    <path fill="#C5D8D1" fill-rule="evenodd" d="M84.338 162.12c.823.823.857 2.123.076 2.904-.78.781-2.081.748-2.904-.075s-.857-2.124-.076-2.905c.781-.78 2.082-.747 2.904.076zm-8.94-8.94c.823.823.857 2.123.076 2.905-.78.78-2.08.747-2.904-.076-.823-.823-.857-2.123-.076-2.904.781-.781 2.082-.748 2.905.075zm-8.94-8.94c.824.823.858 2.124.077 2.905-.782.78-2.082.747-2.905-.076s-.856-2.123-.075-2.904c.78-.781 2.08-.747 2.904.075zm-8.94-8.94c.824.824.858 2.124.077 2.905-.781.78-2.082.747-2.905-.076-.822-.823-.856-2.123-.075-2.904.78-.781 2.081-.747 2.904.076zm-8.939-8.94c.823.824.857 2.124.076 2.905-.781.781-2.081.747-2.904-.076s-.857-2.123-.076-2.904c.78-.781 2.081-.747 2.904.076zm-8.94-8.94c.823.824.857 2.124.076 2.905-.781.781-2.081.747-2.904-.076s-.857-2.123-.076-2.904c.781-.78 2.081-.747 2.904.076zm-8.94-8.939c.823.823.857 2.123.076 2.904-.78.781-2.081.747-2.904-.075-.823-.823-.857-2.124-.076-2.905.781-.78 2.081-.747 2.904.076zm-8.94-8.94c.823.823.857 2.123.076 2.904-.78.781-2.081.748-2.904-.075s-.857-2.123-.076-2.905c.781-.78 2.082-.747 2.905.076zm-8.94-8.94c.824.823.857 2.124.076 2.905-.78.78-2.08.747-2.904-.076-.823-.823-.857-2.123-.076-2.904.782-.781 2.082-.747 2.905.075zm-8.94-8.94c.824.823.858 2.124.077 2.905-.781.78-2.082.747-2.905-.076s-.856-2.123-.075-2.904c.78-.781 2.08-.747 2.904.076zm89.652 71.267c.823.823.857 2.123.076 2.904-.781.781-2.082.747-2.905-.076-.822-.823-.856-2.123-.075-2.904.78-.781 2.08-.747 2.904.076zM13.072 72.469c.823.823.857 2.123.076 2.904-.781.781-2.081.747-2.904-.075-.823-.823-.857-2.124-.076-2.905.781-.78 2.081-.747 2.904.076zm8.94 8.94c.823.823.857 2.123.076 2.904-.781.781-2.081.747-2.904-.076-.823-.822-.857-2.123-.076-2.904.78-.78 2.081-.747 2.904.076zm8.94 8.94c.823.823.857 2.123.076 2.904-.781.781-2.082.747-2.905-.076-.822-.823-.856-2.123-.075-2.904.78-.781 2.081-.747 2.904.076zm8.94 8.94c.823.823.857 2.123.076 2.904-.782.78-2.082.747-2.905-.076s-.856-2.123-.075-2.904c.78-.781 2.08-.747 2.904.076zm8.94 8.94c.822.822.856 2.123.075 2.904-.78.78-2.08.747-2.904-.076-.823-.823-.857-2.123-.076-2.904.781-.781 2.082-.747 2.905.076zm8.94 8.94c.822.822.856 2.123.075 2.904-.78.78-2.081.747-2.904-.076s-.857-2.123-.076-2.904c.781-.781 2.082-.747 2.904.075zm8.94 8.94c.822.822.856 2.122.075 2.903-.781.781-2.081.748-2.904-.075s-.857-2.123-.076-2.905c.781-.78 2.081-.747 2.904.076zm8.94 8.94c.822.822.856 2.122.075 2.903-.781.781-2.081.747-2.904-.075-.823-.823-.857-2.124-.076-2.905.781-.78 2.081-.747 2.904.076zm8.939 8.939c.823.823.857 2.123.076 2.904-.781.781-2.082.747-2.904-.076-.823-.823-.857-2.123-.076-2.904.78-.78 2.081-.747 2.904.076zM22.265 63.277c.822.823.856 2.123.075 2.904-.78.781-2.081.747-2.904-.076s-.857-2.123-.076-2.904c.781-.781 2.082-.747 2.905.076zm8.94 8.94c.822.823.856 2.123.075 2.904-.78.78-2.081.747-2.904-.076s-.857-2.123-.076-2.904c.781-.781 2.082-.747 2.904.076zm8.94 8.94c.822.822.856 2.123.075 2.904-.781.78-2.081.747-2.904-.076s-.857-2.123-.076-2.904c.781-.781 2.081-.747 2.904.075zm8.94 8.94c.822.822.856 2.122.075 2.904-.781.78-2.081.747-2.904-.076s-.857-2.123-.076-2.904c.781-.781 2.081-.748 2.904.075zm8.939 8.94c.823.822.857 2.122.076 2.903-.781.781-2.082.747-2.904-.075-.823-.823-.857-2.124-.076-2.905.78-.78 2.081-.747 2.904.076zm8.94 8.939c.823.823.857 2.123.076 2.904-.781.781-2.082.747-2.905-.076-.822-.822-.856-2.123-.075-2.904.78-.78 2.08-.747 2.904.076zm8.94 8.94c.823.823.856 2.123.075 2.904-.78.781-2.08.747-2.904-.076-.823-.823-.857-2.123-.076-2.904.782-.78 2.082-.747 2.905.076zm8.94 8.94c.822.823.856 2.123.075 2.904-.78.781-2.081.747-2.904-.076s-.857-2.123-.076-2.904c.781-.781 2.082-.747 2.905.076zm8.94 8.94c.822.822.856 2.123.075 2.904-.78.78-2.081.747-2.904-.076s-.857-2.123-.076-2.904c.781-.781 2.081-.747 2.904.076zm8.94 8.94c.822.822.856 2.123.075 2.904-.781.78-2.081.747-2.904-.076s-.857-2.123-.076-2.904c.781-.781 2.081-.747 2.904.075zm-.455-17.426c.823.823.856 2.123.075 2.904-.78.782-2.08.748-2.904-.075-.823-.823-.857-2.123-.076-2.904.782-.782 2.082-.748 2.905.075zm-8.94-8.94c.823.823.857 2.124.076 2.905-.781.78-2.082.747-2.905-.076s-.856-2.123-.075-2.904c.78-.781 2.08-.747 2.904.075zm-8.94-8.94c.823.823.857 2.124.076 2.905-.781.78-2.082.747-2.904-.076-.823-.823-.857-2.123-.076-2.904.78-.781 2.081-.747 2.904.076zm-8.94-8.94c.823.824.857 2.124.076 2.905-.781.781-2.081.747-2.904-.076s-.857-2.123-.076-2.904c.781-.781 2.081-.747 2.904.076zm-8.94-8.94c.823.824.857 2.124.076 2.905-.781.781-2.081.747-2.904-.076s-.857-2.123-.076-2.904c.781-.78 2.081-.747 2.904.076zm44.7 44.7c.822.823.856 2.123.075 2.904-.78.781-2.081.747-2.904-.075-.823-.823-.857-2.124-.076-2.905.781-.78 2.082-.747 2.905.076zm-53.64-53.639c.823.823.857 2.123.076 2.904-.78.781-2.081.747-2.904-.076-.823-.822-.857-2.123-.076-2.904.781-.78 2.082-.747 2.904.076zm-8.94-8.94c.823.823.857 2.123.076 2.904-.78.781-2.081.748-2.904-.075s-.857-2.124-.076-2.905c.781-.78 2.082-.747 2.905.076zm-8.94-8.94c.824.823.858 2.123.076 2.905-.78.78-2.08.747-2.904-.076-.823-.823-.857-2.123-.075-2.904.78-.781 2.08-.748 2.904.075zm-8.94-8.94c.824.823.858 2.124.077 2.905-.781.78-2.082.747-2.905-.076-.822-.823-.856-2.123-.075-2.904.78-.781 2.081-.747 2.904.075zM75.703 81.36c.823.822.856 2.123.075 2.904-.78.78-2.08.747-2.904-.076-.823-.823-.857-2.123-.076-2.904.782-.781 2.082-.747 2.905.076zm35.759 35.759c.823.823.857 2.123.076 2.904-.781.781-2.081.747-2.904-.076s-.857-2.123-.076-2.904c.78-.78 2.081-.747 2.904.076zm-8.94-8.94c.823.823.857 2.123.076 2.904-.781.781-2.081.747-2.904-.076-.823-.822-.857-2.123-.076-2.904.781-.78 2.081-.747 2.904.076zm-8.94-8.94c.823.823.857 2.123.076 2.904-.78.781-2.081.748-2.904-.075s-.857-2.124-.076-2.905c.781-.78 2.081-.747 2.904.076zm-8.94-8.94c.823.823.857 2.123.076 2.905-.78.78-2.081.747-2.904-.076s-.857-2.123-.076-2.904c.781-.781 2.082-.748 2.904.075zm-17.88-17.88c.824.824.858 2.124.077 2.905-.781.78-2.082.747-2.905-.076s-.856-2.123-.075-2.904c.78-.781 2.08-.747 2.904.076zm-8.94-8.94c.824.824.858 2.124.077 2.905-.781.781-2.082.747-2.904-.076-.823-.823-.857-2.123-.076-2.904.78-.781 2.081-.747 2.904.076zm-8.939-8.939c.823.823.857 2.123.076 2.904-.781.781-2.081.747-2.904-.076s-.857-2.123-.076-2.904c.781-.78 2.081-.747 2.904.076zm-8.94-8.94c.823.823.857 2.123.076 2.904-.781.781-2.081.747-2.904-.075-.823-.823-.857-2.124-.076-2.905.781-.78 2.081-.747 2.904.076zm80.459 80.459c.823.823.857 2.123.076 2.904-.781.781-2.082.747-2.905-.076-.822-.823-.856-2.123-.075-2.904.78-.781 2.081-.747 2.904.076zM93.834 81.106c.823.823.857 2.123.076 2.904-.781.781-2.082.747-2.905-.076-.822-.822-.856-2.123-.075-2.904.78-.78 2.081-.747 2.904.076zm-8.94-8.94c.823.823.857 2.123.076 2.904-.781.781-2.082.747-2.904-.075-.823-.823-.857-2.124-.076-2.905.78-.78 2.081-.747 2.904.076zm-8.94-8.94c.823.823.857 2.123.076 2.904-.781.782-2.081.748-2.904-.075s-.857-2.123-.076-2.904c.781-.782 2.081-.748 2.904.075zm-8.94-8.94c.823.823.857 2.124.076 2.905-.781.78-2.081.747-2.904-.076s-.857-2.123-.076-2.904c.781-.781 2.081-.747 2.904.075zm-8.94-8.94c.823.823.857 2.124.076 2.905-.78.78-2.081.747-2.904-.076s-.857-2.123-.076-2.904c.781-.781 2.082-.747 2.904.076zm-8.94-8.94c.824.824.857 2.124.076 2.905-.78.781-2.08.747-2.904-.076-.823-.823-.857-2.123-.076-2.904.781-.781 2.082-.747 2.905.076zm80.46 80.46c.822.822.856 2.123.075 2.904-.781.78-2.081.747-2.904-.076s-.857-2.123-.076-2.904c.781-.781 2.081-.748 2.904.075zm-8.94-8.94c.822.822.856 2.123.075 2.904-.78.78-2.081.747-2.904-.076s-.857-2.123-.076-2.904c.781-.781 2.082-.747 2.904.076zm-8.94-8.94c.822.823.856 2.123.075 2.904-.78.78-2.08.747-2.904-.076-.823-.823-.857-2.123-.076-2.904.781-.781 2.082-.747 2.905.076zm-8.94-8.94c.823.823.857 2.123.075 2.904-.78.781-2.08.747-2.904-.076-.823-.823-.857-2.123-.075-2.904.78-.781 2.08-.747 2.904.076zM84.439 54.74c.823.823.857 2.123.076 2.904-.78.781-2.081.747-2.904-.076-.823-.822-.857-2.123-.076-2.904.781-.78 2.082-.747 2.904.076zm-8.94-8.94c.824.823.857 2.123.076 2.904-.78.781-2.08.747-2.904-.075-.823-.823-.857-2.124-.076-2.905.781-.78 2.082-.747 2.905.076zm44.7 44.7c.823.822.857 2.123.076 2.904-.781.78-2.082.747-2.905-.076-.822-.823-.856-2.123-.075-2.904.78-.781 2.081-.748 2.904.075zm-8.94-8.94c.823.822.857 2.123.076 2.904-.781.78-2.082.747-2.904-.076-.823-.823-.857-2.123-.076-2.904.78-.781 2.081-.747 2.904.076zm-8.94-8.94c.823.823.857 2.123.076 2.904-.781.78-2.081.747-2.904-.076s-.857-2.123-.076-2.904c.781-.781 2.081-.747 2.904.076zm-8.94-8.94c.823.823.857 2.123.076 2.904-.781.781-2.081.747-2.904-.076s-.857-2.123-.076-2.904c.781-.781 2.081-.747 2.904.076zM66.56 36.86c.824.823.858 2.123.077 2.904-.782.782-2.082.748-2.905-.075s-.856-2.123-.075-2.904c.78-.782 2.08-.748 2.904.075zm-8.94-8.94c.824.823.858 2.124.077 2.905-.781.78-2.082.747-2.905-.076-.822-.823-.856-2.123-.075-2.904.78-.781 2.081-.747 2.904.075zm80.46 80.46c.822.822.856 2.122.075 2.903-.78.781-2.081.747-2.904-.075-.823-.823-.857-2.124-.076-2.905.781-.78 2.082-.747 2.905.076zm-8.94-8.94c.823.822.857 2.122.075 2.903-.78.781-2.08.748-2.904-.075-.823-.823-.857-2.123-.075-2.905.78-.78 2.08-.747 2.904.076zm-26.567-44.953c.823.823.857 2.124.075 2.905-.78.78-2.08.747-2.904-.076-.823-.823-.857-2.123-.075-2.904.78-.781 2.08-.747 2.904.075zm44.699 44.7c.823.823.857 2.123.076 2.904-.781.78-2.082.747-2.904-.076-.823-.823-.857-2.123-.076-2.904.78-.781 2.081-.747 2.904.076zm-8.94-8.94c.823.823.857 2.123.076 2.904-.781.781-2.081.747-2.904-.076s-.857-2.123-.076-2.904c.781-.781 2.081-.747 2.904.076zm-8.94-8.94c.823.823.857 2.123.076 2.904-.781.781-2.081.747-2.904-.076-.823-.822-.857-2.123-.076-2.904.781-.78 2.081-.747 2.904.076zm-8.94-8.94c.823.823.857 2.123.076 2.904-.78.781-2.081.747-2.904-.075-.823-.823-.857-2.124-.076-2.905.781-.78 2.082-.747 2.904.076zm-8.94-8.94c.823.823.857 2.123.076 2.904-.78.782-2.081.748-2.904-.075s-.857-2.123-.076-2.904c.781-.782 2.082-.748 2.905.075zm-17.88-17.88c.824.823.858 2.124.077 2.905-.781.78-2.082.747-2.905-.076-.822-.823-.856-2.123-.075-2.904.78-.781 2.081-.747 2.904.076zm-8.939-8.94c.823.824.857 2.124.076 2.905-.781.781-2.082.747-2.904-.076-.823-.823-.857-2.123-.076-2.904.78-.781 2.081-.747 2.904.076zm-8.94-8.94c.823.824.857 2.124.076 2.905-.781.781-2.081.747-2.904-.076s-.857-2.123-.076-2.904c.781-.78 2.081-.747 2.904.076zm-8.94-8.939c.823.823.857 2.123.076 2.904-.781.781-2.081.747-2.904-.076-.823-.822-.857-2.123-.076-2.904.781-.78 2.081-.747 2.904.076zm44.952 26.567c.823.823.857 2.123.076 2.904-.781.781-2.081.747-2.904-.076-.823-.822-.857-2.123-.076-2.904.781-.78 2.081-.747 2.904.076zm26.82 26.82c.823.822.856 2.123.075 2.904-.78.78-2.08.747-2.904-.076-.823-.823-.857-2.123-.076-2.904.782-.781 2.082-.747 2.905.076zm8.94 8.94c.822.822.856 2.123.075 2.904-.78.78-2.081.747-2.904-.076s-.857-2.123-.076-2.904c.781-.781 2.082-.747 2.904.075zm8.94 8.94c.822.822.856 2.122.075 2.903-.78.782-2.081.748-2.904-.075s-.857-2.123-.076-2.904c.781-.782 2.081-.748 2.904.075zm-80.46-80.46c.824.824.858 2.124.076 2.905-.78.78-2.08.747-2.904-.076-.823-.823-.857-2.123-.075-2.904.78-.781 2.08-.747 2.904.076zm53.64 53.64c.823.823.857 2.123.076 2.904-.781.781-2.082.747-2.905-.076s-.856-2.123-.075-2.904c.78-.781 2.08-.747 2.904.076zm-8.94-8.94c.823.823.857 2.123.076 2.904-.781.781-2.082.747-2.904-.076-.823-.823-.857-2.123-.076-2.904.78-.78 2.081-.747 2.904.076zm-35.76-35.76c.823.823.857 2.124.076 2.905-.78.78-2.081.747-2.904-.076s-.857-2.123-.076-2.904c.781-.781 2.082-.747 2.905.076zm8.94 8.94c.823.823.857 2.123.076 2.905-.78.78-2.081.747-2.904-.076s-.857-2.123-.076-2.904c.781-.781 2.082-.748 2.904.075zm8.94 8.94c.823.823.857 2.123.076 2.904-.781.781-2.081.748-2.904-.075s-.857-2.124-.076-2.905c.781-.78 2.081-.747 2.904.076zm26.365 9.395c.823.823.857 2.123.076 2.904-.781.78-2.081.747-2.904-.076s-.857-2.123-.076-2.904c.781-.781 2.081-.747 2.904.076zm8.94 8.94c.823.822.857 2.123.076 2.904-.781.78-2.081.747-2.904-.076s-.857-2.123-.076-2.904c.78-.781 2.081-.747 2.904.075zm8.94 8.94c.823.822.857 2.122.076 2.904-.781.78-2.082.747-2.905-.076-.822-.823-.856-2.123-.075-2.904.78-.781 2.081-.748 2.904.075zm8.94 8.94c.823.822.857 2.122.076 2.903-.782.781-2.082.747-2.905-.075-.823-.823-.856-2.124-.075-2.905.78-.78 2.08-.747 2.904.076zm8.94 8.939c.823.823.856 2.123.075 2.904-.78.781-2.08.747-2.904-.076-.823-.822-.857-2.123-.076-2.904.781-.78 2.082-.747 2.905.076zM84.49 1.051c.823.823.857 2.124.076 2.905-.781.78-2.082.747-2.904-.076-.823-.823-.857-2.123-.076-2.904.78-.781 2.081-.748 2.904.075zm8.94 8.94c.823.823.857 2.123.076 2.904-.781.781-2.082.748-2.905-.075-.822-.823-.856-2.123-.075-2.905.78-.78 2.08-.747 2.904.076zm8.94 8.94c.823.823.856 2.123.075 2.904-.78.781-2.08.747-2.904-.075-.823-.823-.857-2.124-.076-2.905.782-.78 2.082-.747 2.905.076zm8.94 8.94c.822.823.856 2.123.075 2.904-.78.781-2.081.747-2.904-.076s-.857-2.123-.076-2.904c.781-.78 2.082-.747 2.905.076zm8.94 8.94c.822.823.856 2.123.075 2.904-.78.781-2.081.747-2.904-.076s-.857-2.123-.076-2.904c.781-.781 2.081-.747 2.904.076z"/>
</svg>
