<svg xmlns="http://www.w3.org/2000/svg" width="118" height="118" viewBox="0 0 118 118">
    <path fill="#F4D1AE" fill-rule="evenodd" d="M115.893 114c1.164 0 2.107.895 2.107 2s-.943 2-2.107 2c-1.164 0-2.107-.895-2.107-2s.943-2 2.107-2zm-12.643 0c1.164 0 2.107.895 2.107 2s-.943 2-2.107 2c-1.164 0-2.107-.895-2.107-2s.943-2 2.107-2zm-12.643 0c1.164 0 2.107.895 2.107 2s-.943 2-2.107 2c-1.164 0-2.107-.895-2.107-2s.943-2 2.107-2zm-12.643 0c1.164 0 2.107.895 2.107 2s-.943 2-2.107 2c-1.163 0-2.107-.895-2.107-2s.944-2 2.107-2zm-12.643 0c1.164 0 2.108.895 2.108 2s-.944 2-2.108 2c-1.163 0-2.107-.895-2.107-2s.944-2 2.107-2zm-12.642 0c1.163 0 2.107.895 2.107 2s-.944 2-2.107 2c-1.164 0-2.108-.895-2.108-2s.944-2 2.108-2zm-12.643 0c1.163 0 2.107.895 2.107 2s-.944 2-2.107 2c-1.164 0-2.107-.895-2.107-2s.943-2 2.107-2zm-12.643 0c1.164 0 2.107.895 2.107 2s-.943 2-2.107 2c-1.164 0-2.107-.895-2.107-2s.943-2 2.107-2zm-12.643 0c1.164 0 2.107.895 2.107 2s-.943 2-2.107 2c-1.164 0-2.107-.895-2.107-2s.943-2 2.107-2zm-12.643 0c1.164 0 2.107.895 2.107 2s-.943 2-2.107 2C.943 118 0 117.105 0 116s.943-2 2.107-2zm113.786-13c1.164 0 2.107.895 2.107 2s-.943 2-2.107 2c-1.164 0-2.107-.895-2.107-2s.943-2 2.107-2zM2.107 101c1.164 0 2.107.895 2.107 2s-.943 2-2.107 2C.943 105 0 104.105 0 103s.943-2 2.107-2zm12.643 0c1.164 0 2.107.895 2.107 2s-.943 2-2.107 2c-1.164 0-2.107-.895-2.107-2s.943-2 2.107-2zm12.643 0c1.164 0 2.107.895 2.107 2s-.943 2-2.107 2c-1.164 0-2.107-.895-2.107-2s.943-2 2.107-2zm12.643 0c1.163 0 2.107.895 2.107 2s-.944 2-2.107 2c-1.164 0-2.107-.895-2.107-2s.943-2 2.107-2zm12.643 0c1.163 0 2.107.895 2.107 2s-.944 2-2.107 2c-1.164 0-2.108-.895-2.108-2s.944-2 2.108-2zm12.642 0c1.164 0 2.108.895 2.108 2s-.944 2-2.108 2c-1.163 0-2.107-.895-2.107-2s.944-2 2.107-2zm12.643 0c1.164 0 2.107.895 2.107 2s-.943 2-2.107 2c-1.163 0-2.107-.895-2.107-2s.944-2 2.107-2zm12.643 0c1.164 0 2.107.895 2.107 2s-.943 2-2.107 2c-1.164 0-2.107-.895-2.107-2s.943-2 2.107-2zm12.643 0c1.164 0 2.107.895 2.107 2s-.943 2-2.107 2c-1.164 0-2.107-.895-2.107-2s.943-2 2.107-2zM2.107 88c1.164 0 2.107.895 2.107 2s-.943 2-2.107 2C.943 92 0 91.105 0 90s.943-2 2.107-2zm12.643 0c1.164 0 2.107.895 2.107 2s-.943 2-2.107 2c-1.164 0-2.107-.895-2.107-2s.943-2 2.107-2zm12.643 0c1.164 0 2.107.895 2.107 2s-.943 2-2.107 2c-1.164 0-2.107-.895-2.107-2s.943-2 2.107-2zm12.643 0c1.163 0 2.107.895 2.107 2s-.944 2-2.107 2c-1.164 0-2.107-.895-2.107-2s.943-2 2.107-2zm12.643 0c1.163 0 2.107.895 2.107 2s-.944 2-2.107 2c-1.164 0-2.108-.895-2.108-2s.944-2 2.108-2zm12.642 0c1.164 0 2.108.895 2.108 2s-.944 2-2.108 2c-1.163 0-2.107-.895-2.107-2s.944-2 2.107-2zm12.643 0c1.164 0 2.107.895 2.107 2s-.943 2-2.107 2c-1.163 0-2.107-.895-2.107-2s.944-2 2.107-2zm12.643 0c1.164 0 2.107.895 2.107 2s-.943 2-2.107 2c-1.164 0-2.107-.895-2.107-2s.943-2 2.107-2zm12.643 0c1.164 0 2.107.895 2.107 2s-.943 2-2.107 2c-1.164 0-2.107-.895-2.107-2s.943-2 2.107-2zm12.643 0c1.164 0 2.107.895 2.107 2s-.943 2-2.107 2c-1.164 0-2.107-.895-2.107-2s.943-2 2.107-2zM103.25 76c1.164 0 2.107.895 2.107 2s-.943 2-2.107 2c-1.164 0-2.107-.895-2.107-2s.943-2 2.107-2zm-12.643 0c1.164 0 2.107.895 2.107 2s-.943 2-2.107 2c-1.164 0-2.107-.895-2.107-2s.943-2 2.107-2zm-12.643 0c1.164 0 2.107.895 2.107 2s-.943 2-2.107 2c-1.163 0-2.107-.895-2.107-2s.944-2 2.107-2zm-12.643 0c1.164 0 2.108.895 2.108 2s-.944 2-2.108 2c-1.163 0-2.107-.895-2.107-2s.944-2 2.107-2zM52.68 76c1.163 0 2.107.895 2.107 2s-.944 2-2.107 2c-1.164 0-2.108-.895-2.108-2s.944-2 2.108-2zm63.214 0c1.164 0 2.107.895 2.107 2s-.943 2-2.107 2c-1.164 0-2.107-.895-2.107-2s.943-2 2.107-2zm-75.857 0c1.163 0 2.107.895 2.107 2s-.944 2-2.107 2c-1.164 0-2.107-.895-2.107-2s.943-2 2.107-2zm-12.643 0c1.164 0 2.107.895 2.107 2s-.943 2-2.107 2c-1.164 0-2.107-.895-2.107-2s.943-2 2.107-2zM14.75 76c1.164 0 2.107.895 2.107 2s-.943 2-2.107 2c-1.164 0-2.107-.895-2.107-2s.943-2 2.107-2zM2.107 76c1.164 0 2.107.895 2.107 2s-.943 2-2.107 2C.943 80 0 79.105 0 78s.943-2 2.107-2zM52.68 63c1.163 0 2.107.895 2.107 2s-.944 2-2.107 2c-1.164 0-2.108-.895-2.108-2s.944-2 2.108-2zm50.571 0c1.164 0 2.107.895 2.107 2s-.943 2-2.107 2c-1.164 0-2.107-.895-2.107-2s.943-2 2.107-2zm-12.643 0c1.164 0 2.107.895 2.107 2s-.943 2-2.107 2c-1.164 0-2.107-.895-2.107-2s.943-2 2.107-2zm-12.643 0c1.164 0 2.107.895 2.107 2s-.943 2-2.107 2c-1.163 0-2.107-.895-2.107-2s.944-2 2.107-2zm-12.643 0c1.164 0 2.108.895 2.108 2s-.944 2-2.108 2c-1.163 0-2.107-.895-2.107-2s.944-2 2.107-2zm-25.285 0c1.163 0 2.107.895 2.107 2s-.944 2-2.107 2c-1.164 0-2.107-.895-2.107-2s.943-2 2.107-2zm-12.643 0c1.164 0 2.107.895 2.107 2s-.943 2-2.107 2c-1.164 0-2.107-.895-2.107-2s.943-2 2.107-2zM14.75 63c1.164 0 2.107.895 2.107 2s-.943 2-2.107 2c-1.164 0-2.107-.895-2.107-2s.943-2 2.107-2zM2.107 63c1.164 0 2.107.895 2.107 2s-.943 2-2.107 2C.943 67 0 66.105 0 65s.943-2 2.107-2zm113.786 0c1.164 0 2.107.895 2.107 2s-.943 2-2.107 2c-1.164 0-2.107-.895-2.107-2s.943-2 2.107-2zM65.32 50c1.164 0 2.108.895 2.108 2s-.944 2-2.108 2c-1.163 0-2.107-.895-2.107-2s.944-2 2.107-2zM52.68 50c1.163 0 2.107.895 2.107 2s-.944 2-2.107 2c-1.164 0-2.108-.895-2.108-2s.944-2 2.108-2zm-12.643 0c1.163 0 2.107.895 2.107 2s-.944 2-2.107 2c-1.164 0-2.107-.895-2.107-2s.943-2 2.107-2zm-12.643 0c1.164 0 2.107.895 2.107 2s-.943 2-2.107 2c-1.164 0-2.107-.895-2.107-2s.943-2 2.107-2zM14.75 50c1.164 0 2.107.895 2.107 2s-.943 2-2.107 2c-1.164 0-2.107-.895-2.107-2s.943-2 2.107-2zM2.107 50c1.164 0 2.107.895 2.107 2s-.943 2-2.107 2C.943 54 0 53.105 0 52s.943-2 2.107-2zm113.786 0c1.164 0 2.107.895 2.107 2s-.943 2-2.107 2c-1.164 0-2.107-.895-2.107-2s.943-2 2.107-2zm-12.643 0c1.164 0 2.107.895 2.107 2s-.943 2-2.107 2c-1.164 0-2.107-.895-2.107-2s.943-2 2.107-2zm-12.643 0c1.164 0 2.107.895 2.107 2s-.943 2-2.107 2c-1.164 0-2.107-.895-2.107-2s.943-2 2.107-2zm-12.643 0c1.164 0 2.107.895 2.107 2s-.943 2-2.107 2c-1.163 0-2.107-.895-2.107-2s.944-2 2.107-2zM40.036 38c1.163 0 2.107.895 2.107 2s-.944 2-2.107 2c-1.164 0-2.107-.895-2.107-2s.943-2 2.107-2zm-12.643 0c1.164 0 2.107.895 2.107 2s-.943 2-2.107 2c-1.164 0-2.107-.895-2.107-2s.943-2 2.107-2zm63.214 0c1.164 0 2.107.895 2.107 2s-.943 2-2.107 2c-1.164 0-2.107-.895-2.107-2s.943-2 2.107-2zm-12.643 0c1.164 0 2.107.895 2.107 2s-.943 2-2.107 2c-1.163 0-2.107-.895-2.107-2s.944-2 2.107-2zm-12.643 0c1.164 0 2.108.895 2.108 2s-.944 2-2.108 2c-1.163 0-2.107-.895-2.107-2s.944-2 2.107-2zM52.68 38c1.163 0 2.107.895 2.107 2s-.944 2-2.107 2c-1.164 0-2.108-.895-2.108-2s.944-2 2.108-2zM14.75 38c1.164 0 2.107.895 2.107 2s-.943 2-2.107 2c-1.164 0-2.107-.895-2.107-2s.943-2 2.107-2zM2.107 38c1.164 0 2.107.895 2.107 2s-.943 2-2.107 2C.943 42 0 41.105 0 40s.943-2 2.107-2zm113.786 0c1.164 0 2.107.895 2.107 2s-.943 2-2.107 2c-1.164 0-2.107-.895-2.107-2s.943-2 2.107-2zm-12.643 0c1.164 0 2.107.895 2.107 2s-.943 2-2.107 2c-1.164 0-2.107-.895-2.107-2s.943-2 2.107-2zM52.679 25c1.163 0 2.107.895 2.107 2s-.944 2-2.107 2c-1.164 0-2.108-.895-2.108-2s.944-2 2.108-2zm63.214 0c1.164 0 2.107.895 2.107 2s-.943 2-2.107 2c-1.164 0-2.107-.895-2.107-2s.943-2 2.107-2zm-12.643 0c1.164 0 2.107.895 2.107 2s-.943 2-2.107 2c-1.164 0-2.107-.895-2.107-2s.943-2 2.107-2zm-12.643 0c1.164 0 2.107.895 2.107 2s-.943 2-2.107 2c-1.164 0-2.107-.895-2.107-2s.943-2 2.107-2zm-12.643 0c1.164 0 2.107.895 2.107 2s-.943 2-2.107 2c-1.163 0-2.107-.895-2.107-2s.944-2 2.107-2zm-12.643 0c1.164 0 2.108.895 2.108 2s-.944 2-2.108 2c-1.163 0-2.107-.895-2.107-2s.944-2 2.107-2zm-25.285 0c1.163 0 2.107.895 2.107 2s-.944 2-2.107 2c-1.164 0-2.107-.895-2.107-2s.943-2 2.107-2zm-12.643 0c1.164 0 2.107.895 2.107 2s-.943 2-2.107 2c-1.164 0-2.107-.895-2.107-2s.943-2 2.107-2zM14.75 25c1.164 0 2.107.895 2.107 2s-.943 2-2.107 2c-1.164 0-2.107-.895-2.107-2s.943-2 2.107-2zM2.107 25c1.164 0 2.107.895 2.107 2s-.943 2-2.107 2C.943 29 0 28.105 0 27s.943-2 2.107-2zM52.68 12c1.163 0 2.107.895 2.107 2s-.944 2-2.107 2c-1.164 0-2.108-.895-2.108-2s.944-2 2.108-2zm37.928 0c1.164 0 2.107.895 2.107 2s-.943 2-2.107 2c-1.164 0-2.107-.895-2.107-2s.943-2 2.107-2zm12.643 0c1.164 0 2.107.895 2.107 2s-.943 2-2.107 2c-1.164 0-2.107-.895-2.107-2s.943-2 2.107-2zm12.643 0c1.164 0 2.107.895 2.107 2s-.943 2-2.107 2c-1.164 0-2.107-.895-2.107-2s.943-2 2.107-2zM2.107 12c1.164 0 2.107.895 2.107 2s-.943 2-2.107 2C.943 16 0 15.105 0 14s.943-2 2.107-2zm75.857 0c1.164 0 2.107.895 2.107 2s-.943 2-2.107 2c-1.163 0-2.107-.895-2.107-2s.944-2 2.107-2zm-12.643 0c1.164 0 2.108.895 2.108 2s-.944 2-2.108 2c-1.163 0-2.107-.895-2.107-2s.944-2 2.107-2zM14.75 12c1.164 0 2.107.895 2.107 2s-.943 2-2.107 2c-1.164 0-2.107-.895-2.107-2s.943-2 2.107-2zm12.643 0c1.164 0 2.107.895 2.107 2s-.943 2-2.107 2c-1.164 0-2.107-.895-2.107-2s.943-2 2.107-2zm12.643 0c1.163 0 2.107.895 2.107 2s-.944 2-2.107 2c-1.164 0-2.107-.895-2.107-2s.943-2 2.107-2zM65.32 0c1.164 0 2.108.895 2.108 2s-.944 2-2.108 2c-1.163 0-2.107-.895-2.107-2s.944-2 2.107-2zm12.643 0c1.164 0 2.107.895 2.107 2s-.943 2-2.107 2c-1.163 0-2.107-.895-2.107-2s.944-2 2.107-2zm12.643 0c1.164 0 2.107.895 2.107 2s-.943 2-2.107 2C89.443 4 88.5 3.105 88.5 2s.943-2 2.107-2zm12.643 0c1.164 0 2.107.895 2.107 2s-.943 2-2.107 2c-1.164 0-2.107-.895-2.107-2s.943-2 2.107-2zm12.643 0C117.057 0 118 .895 118 2s-.943 2-2.107 2c-1.164 0-2.107-.895-2.107-2s.943-2 2.107-2zM2.107 0c1.164 0 2.107.895 2.107 2s-.943 2-2.107 2C.943 4 0 3.105 0 2s.943-2 2.107-2zM14.75 0c1.164 0 2.107.895 2.107 2s-.943 2-2.107 2c-1.164 0-2.107-.895-2.107-2s.943-2 2.107-2zm12.643 0C28.557 0 29.5.895 29.5 2s-.943 2-2.107 2c-1.164 0-2.107-.895-2.107-2s.943-2 2.107-2zm12.643 0c1.163 0 2.107.895 2.107 2s-.944 2-2.107 2c-1.164 0-2.107-.895-2.107-2s.943-2 2.107-2zm12.643 0c1.163 0 2.107.895 2.107 2s-.944 2-2.107 2c-1.164 0-2.108-.895-2.108-2s.944-2 2.108-2z"/>
</svg>
