<svg xmlns="http://www.w3.org/2000/svg" xmlns:xlink="http://www.w3.org/1999/xlink" width="25" height="25" viewBox="0 0 25 25">
    <defs>
        <path id="a" d="M.001.001H25v24.847H.001z"/>
    </defs>
    <g fill="none" fill-rule="evenodd">
        <g>
            <mask id="b" fill="#fff">
                <use xlink:href="#a"/>
            </mask>
            <path fill="#0C4C69" d="M25 12.5C25 5.596 19.404 0 12.5 0S0 5.596 0 12.5c0 6.24 4.571 11.41 10.547 12.348v-8.735H7.373V12.5h3.174V9.746c0-3.133 1.866-4.863 4.721-4.863 1.368 0 2.798.244 2.798.244v3.076H16.49c-1.553 0-2.037.964-2.037 1.952V12.5h3.467l-.554 3.613h-2.913v8.735C20.43 23.91 25 18.74 25 12.5" mask="url(#b)"/>
        </g>
        <path fill="#FFFFFE" d="M17.366 16.113l.554-3.613h-3.467v-2.345c0-.988.484-1.952 2.037-1.952h1.576V5.127s-1.43-.244-2.798-.244c-2.855 0-4.721 1.73-4.721 4.863V12.5H7.373v3.613h3.174v8.735a12.594 12.594 0 0 0 3.906 0v-8.735h2.913"/>
    </g>
</svg>
