<svg xmlns="http://www.w3.org/2000/svg" width="14" height="15" viewBox="0 0 14 15">
    <path fill="#FFF" fill-rule="evenodd" d="M12.772.645a2.134 2.134 0 0 0-3.019 0L1.292 9.106a.474.474 0 0 0-.122.209L.058 13.332a.474.474 0 0 0 .583.584l4.017-1.113a.474.474 0 0 0 .21-.122l8.46-8.462a2.137 2.137 0 0 0 0-3.018l-.556-.556zM2.325 9.415L9.25 2.488l2.234 2.233-6.925 6.926-2.234-2.234zm-.446.894l1.785 1.785-2.468.684.683-2.469zm10.779-6.76l-.503.503L9.92 1.818l.503-.503a1.186 1.186 0 0 1 1.677 0l.557.557a1.187 1.187 0 0 1 0 1.677z"/>
</svg>
