<svg xmlns="http://www.w3.org/2000/svg" width="18" height="18" viewBox="0 0 18 18">
    <g fill="none" fill-rule="evenodd">
        <path fill-rule="nonzero" stroke="#2098ce" stroke-width="1.3" d="M17.156 7.35a.633.633 0 0 0 .162-.657.633.633 0 0 0-.518-.436l-4.358-.634a1.22 1.22 0 0 1-.919-.667l-1.948-3.95A.633.633 0 0 0 9 .65a.633.633 0 0 0-.574.357L6.477 4.956a1.22 1.22 0 0 1-.919.668L1.2 6.257a.633.633 0 0 0-.518.436.633.633 0 0 0 .162.657l3.154 3.074c.287.28.419.684.351 1.08l-.744 4.34a.615.615 0 0 0 .138.518c.191.227.53.295.792.157l3.898-2.05a1.234 1.234 0 0 1 1.135.001l3.898 2.05c.097.05.195.075.298.075a.645.645 0 0 0 .631-.751l-.744-4.34a1.22 1.22 0 0 1 .351-1.08l3.154-3.074z"/>
        <path fill="#2098ce" d="M9 1v13l-5 3-.605-2.371L5 11 1 7l5-2z"/>
    </g>
</svg>
