<svg xmlns="http://www.w3.org/2000/svg" width="18" height="18" viewBox="0 0 18 18">
    <path fill="#2098ce" fill-rule="nonzero" stroke="#2098ce" stroke-width="2" d="M16.911 7.1v-.001a.283.283 0 0 0 .074-.298.283.283 0 0 0-.235-.198L12.39 5.97a1.569 1.569 0 0 1-1.181-.86L9.26 1.163A.283.283 0 0 0 9.001 1c-.115 0-.211.06-.261.162L6.79 5.11a1.57 1.57 0 0 1-1.182.86l-4.36.633a.283.283 0 0 0-.234.198.283.283 0 0 0 .074.298l3.153 3.075c.37.36.54.88.452 1.389l-.744 4.341a.266.266 0 0 0 .061.233.305.305 0 0 0 .36.073l3.9-2.05a1.585 1.585 0 0 1 1.46 0l3.898 2.05a.278.278 0 0 0 .135.035.296.296 0 0 0 .227-.11.265.265 0 0 0 .06-.232l-.745-4.34a1.57 1.57 0 0 1 .452-1.39L16.91 7.1z"/>
</svg>
