<svg xmlns="http://www.w3.org/2000/svg" xmlns:xlink="http://www.w3.org/1999/xlink" width="11" height="11" viewBox="0 0 11 11">
    <defs>
        <path id="a" d="M1.833 3.575c.202 0 .367.148.367.33v5.94c0 .182-.164.33-.367.33H.367c-.203 0-.367-.148-.367-.33v-5.94c0-.182.165-.33.367-.33zM6.181.301c.27-.064.604-.004.843.116.735.368.907 1.403.642 2.08l-.384.982s2.75-.01 2.808 0c.972.154 1.25 1.388.418 1.887.282.468.117 1.077-.365 1.366.283.468.118 1.077-.364 1.366.404.67-.133 1.527-.953 1.527H2.75V4.162s1.758-1.492 2.324-2.01a2.05 2.05 0 0 0 .619-1.106c.033-.164.023-.337.116-.484A.606.606 0 0 1 6.181.3z"/>
    </defs>
    <g fill="none" fill-rule="evenodd">
        <g transform="translate(0 -.275)">
            <mask id="b" fill="#fff">
                <use xlink:href="#a"/>
            </mask>
            <use fill="#FFF" fill-rule="nonzero" xlink:href="#a"/>
            <g fill="#FFF" mask="url(#b)">
                <path d="M0 0h11v11H0z"/>
            </g>
        </g>
    </g>
</svg>
