<svg xmlns="http://www.w3.org/2000/svg" width="190" height="26" viewBox="0 0 190 26">
    <g fill="none" fill-rule="evenodd">
        <path fill="#FFF" fill-rule="nonzero" d="M13.753 9.507h4.838v15.877h-4.838V9.507zm-.388-4.999c0-.784.275-1.453.823-2.009a2.687 2.687 0 0 1 1.984-.833c.774 0 1.435.278 1.984.833.548.556.822 1.225.822 2.01 0 .783-.274 1.453-.822 2.008a2.687 2.687 0 0 1-1.984.834 2.687 2.687 0 0 1-1.984-.834 2.756 2.756 0 0 1-.823-2.009zm-9.935 8.92H.237V9.506H3.43v-2.81c0-.871.075-1.693.226-2.466a5.04 5.04 0 0 1 .87-2.042C4.958 1.6 5.577 1.138 6.383.8 7.188.463 8.247.294 9.559.294c.495 0 .979.022 1.452.065.473.044.935.12 1.387.229l-.226 4.149a5.633 5.633 0 0 0-.774-.245 3.609 3.609 0 0 0-.807-.082c-.774 0-1.354.17-1.742.507-.387.337-.58 1.029-.58 2.074v2.516h3.58v3.92H8.27v11.957H3.43V13.427zm18.643-3.921h4.645v2.156h.064c.151-.305.366-.61.646-.915.28-.305.613-.577 1-.817a5.68 5.68 0 0 1 1.322-.588 5.451 5.451 0 0 1 1.613-.228c1.226 0 2.215.19 2.968.571.752.382 1.338.91 1.758 1.585.42.675.704 1.47.855 2.385.15.915.226 1.906.226 2.973v8.755h-4.84V17.61c0-.458-.015-.931-.048-1.421a4.532 4.532 0 0 0-.29-1.356 2.338 2.338 0 0 0-.742-1.013c-.333-.261-.812-.392-1.435-.392-.624 0-1.13.114-1.516.343a2.324 2.324 0 0 0-.887.915 3.774 3.774 0 0 0-.404 1.29c-.064.48-.096.98-.096 1.503v7.906h-4.84V9.507zm28.35 13.884h-.065c-.538.85-1.253 1.46-2.145 1.83a7.294 7.294 0 0 1-2.823.555 7.193 7.193 0 0 1-2.113-.31 5.31 5.31 0 0 1-1.79-.931 4.487 4.487 0 0 1-1.226-1.536c-.3-.61-.451-1.317-.451-2.123 0-.915.166-1.688.5-2.32a4.51 4.51 0 0 1 1.355-1.568 6.692 6.692 0 0 1 1.951-.964c.731-.228 1.49-.397 2.274-.506.785-.109 1.57-.174 2.355-.196.785-.022 1.51-.033 2.177-.033 0-.87-.306-1.562-.919-2.074-.613-.512-1.339-.768-2.177-.768-.796 0-1.522.169-2.178.506-.656.338-1.242.8-1.758 1.389l-2.58-2.679a8.86 8.86 0 0 1 3.16-1.911 11.17 11.17 0 0 1 3.743-.637c1.42 0 2.586.18 3.5.539.914.36 1.645.887 2.193 1.584.549.697.93 1.552 1.145 2.565.216 1.013.323 2.183.323 3.512v8.07h-4.452V23.39zm-1.194-4.965c-.366 0-.823.016-1.371.049a6.865 6.865 0 0 0-1.58.277 3.5 3.5 0 0 0-1.29.686c-.356.305-.533.73-.533 1.274 0 .589.247 1.024.742 1.307.494.283 1.01.425 1.548.425a4.8 4.8 0 0 0 1.371-.196c.44-.13.833-.316 1.177-.555.345-.24.619-.545.823-.915.204-.37.306-.806.306-1.307v-1.045H49.23zm8.672-8.92h4.645v2.157h.065c.15-.305.365-.61.645-.915.28-.305.613-.577 1-.817s.828-.435 1.322-.588a5.452 5.452 0 0 1 1.613-.228c1.226 0 2.215.19 2.968.571.753.382 1.339.91 1.758 1.585.42.675.704 1.47.855 2.385.15.915.226 1.906.226 2.973v8.755h-4.84V17.61c0-.458-.015-.931-.047-1.421a4.532 4.532 0 0 0-.29-1.356 2.34 2.34 0 0 0-.743-1.013c-.333-.261-.811-.392-1.435-.392s-1.13.114-1.516.343a2.322 2.322 0 0 0-.887.915 3.77 3.77 0 0 0-.404 1.29c-.064.48-.096.98-.096 1.503v7.906H57.9V9.507zm29.124 5.13c-.237-.349-.57-.637-1-.866a2.91 2.91 0 0 0-1.387-.343c-1.226 0-2.178.37-2.855 1.11-.678.741-1.016 1.71-1.016 2.909 0 1.197.338 2.167 1.016 2.907.677.74 1.629 1.11 2.855 1.11.537 0 1-.119 1.387-.358.387-.24.72-.523 1-.85l3.193 3.398a6.157 6.157 0 0 1-2.661 1.65c-1.021.315-1.995.473-2.92.473a9.77 9.77 0 0 1-3.403-.588 8.173 8.173 0 0 1-2.774-1.682 7.898 7.898 0 0 1-1.854-2.63c-.452-1.024-.678-2.167-.678-3.43 0-1.264.226-2.407.678-3.43a7.897 7.897 0 0 1 1.854-2.63 8.173 8.173 0 0 1 2.774-1.683 9.77 9.77 0 0 1 3.404-.588c.924 0 1.898.158 2.919.473a6.157 6.157 0 0 1 2.661 1.65l-3.193 3.398zm19.77 8.004a7.737 7.737 0 0 1-2.935 2.32 8.7 8.7 0 0 1-3.677.816 9.768 9.768 0 0 1-3.403-.588 8.17 8.17 0 0 1-2.774-1.682 7.894 7.894 0 0 1-1.855-2.63c-.452-1.024-.678-2.167-.678-3.43 0-1.264.226-2.407.678-3.43a7.893 7.893 0 0 1 1.855-2.63 8.17 8.17 0 0 1 2.774-1.683 9.768 9.768 0 0 1 3.403-.588c1.118 0 2.134.196 3.048.588a6.353 6.353 0 0 1 2.323 1.682c.634.73 1.124 1.607 1.468 2.63.344 1.024.516 2.167.516 3.43v1.536H96.312c.194.937.613 1.682 1.258 2.238.645.555 1.44.833 2.387.833.796 0 1.468-.18 2.016-.54a5.45 5.45 0 0 0 1.436-1.388l3.387 2.516zm-4.096-6.991c.021-.828-.247-1.536-.806-2.124-.56-.588-1.28-.882-2.162-.882-.537 0-1.01.087-1.419.261a3.551 3.551 0 0 0-1.048.67c-.29.272-.516.588-.678.948a3.15 3.15 0 0 0-.274 1.127h6.387zm7.77-6.142h4.838v2.548h.065c.516-.98 1.129-1.715 1.838-2.205.71-.49 1.602-.735 2.678-.735.279 0 .558.01.838.032.28.022.538.066.774.131v4.476a7.234 7.234 0 0 0-1.016-.245 6.494 6.494 0 0 0-1.048-.082c-.925 0-1.656.13-2.194.392A2.923 2.923 0 0 0 116 14.914c-.29.468-.478 1.029-.564 1.682a16.55 16.55 0 0 0-.129 2.156v6.632h-4.839V9.507zm10.256 13.068c0-.414.075-.806.226-1.176a2.879 2.879 0 0 1 1.58-1.6 2.985 2.985 0 0 1 1.162-.23c.408 0 .796.076 1.161.229a2.881 2.881 0 0 1 1.58 1.6c.151.37.227.763.227 1.177 0 .413-.076.805-.226 1.176a2.882 2.882 0 0 1-1.58 1.6 2.988 2.988 0 0 1-1.162.23c-.409 0-.796-.077-1.161-.23a2.88 2.88 0 0 1-1.581-1.6 3.088 3.088 0 0 1-.226-1.176zm20.06-7.94c-.236-.348-.569-.636-1-.865a2.91 2.91 0 0 0-1.386-.343c-1.226 0-2.178.37-2.855 1.11-.677.741-1.016 1.71-1.016 2.909 0 1.197.339 2.167 1.016 2.907.677.74 1.629 1.11 2.855 1.11.537 0 1-.119 1.387-.358.387-.24.72-.523 1-.85l3.193 3.398a6.158 6.158 0 0 1-2.66 1.65c-1.023.315-1.996.473-2.92.473a9.768 9.768 0 0 1-3.403-.588 8.17 8.17 0 0 1-2.774-1.682 7.894 7.894 0 0 1-1.855-2.63c-.452-1.024-.678-2.167-.678-3.43 0-1.264.226-2.407.678-3.43a7.893 7.893 0 0 1 1.855-2.63 8.17 8.17 0 0 1 2.774-1.683 9.768 9.768 0 0 1 3.403-.588c.924 0 1.897.158 2.92.473a6.158 6.158 0 0 1 2.66 1.65l-3.193 3.398zm24.022-5.128h4.646v2.156h.064c.15-.305.366-.61.645-.915a4.7 4.7 0 0 1 1-.817c.387-.24.828-.435 1.323-.588a5.452 5.452 0 0 1 1.613-.228c1.096 0 2.07.228 2.92.686.848.457 1.488 1.176 1.918 2.156.56-1.024 1.237-1.753 2.033-2.189.795-.435 1.774-.653 2.935-.653 1.054 0 1.94.18 2.661.539.72.36 1.29.85 1.71 1.47.42.62.72 1.35.903 2.189.183.838.274 1.737.274 2.695v9.376h-4.838V16.14c0-.74-.156-1.378-.468-1.911-.312-.534-.866-.8-1.661-.8-.56 0-1.027.092-1.404.277a2.316 2.316 0 0 0-.903.768 3.214 3.214 0 0 0-.483 1.143 6.29 6.29 0 0 0-.146 1.372v8.396h-4.838v-8.396c0-.283-.011-.631-.033-1.045a4.217 4.217 0 0 0-.226-1.176 2.249 2.249 0 0 0-.629-.948c-.29-.261-.714-.392-1.274-.392-.623 0-1.129.114-1.516.343a2.322 2.322 0 0 0-.887.915 3.77 3.77 0 0 0-.403 1.29c-.065.48-.097.98-.097 1.503v7.906h-4.839V9.507z"/>
        <path fill="#FFF" d="M145.147 16.808c0-4.88 3.881-8.835 8.668-8.835 4.788 0 8.669 3.955 8.669 8.835 0 4.88-3.88 8.835-8.669 8.835-4.787 0-8.668-3.955-8.668-8.835z"/>
        <path fill="#FFF" d="M148.895 16.81a4.754 4.754 0 1 1 9.508 0 4.754 4.754 0 0 1-9.508 0z"/>
        <path fill="#0C4C69" d="M149.438 16.92a4.317 4.317 0 1 1 8.633 0 4.317 4.317 0 0 1-8.633 0z"/>
        <path fill="#FFF" d="M154.95 20.5l.616-.438 3.099 4.22-.617.437zM149.916 16.183h1.533v3.58h-1.533z"/>
        <path fill="#FFF" d="M149.906 18.898h.638v1.538h-.638zM151.883 14.89h1.618v5.623h-1.618zM151.883 20.833h1.618v.695h-1.618zM153.948 18.112h1.552v3.632h-1.552zM155.923 15.184h1.56v3.375h-1.56zM155.88 19.083h.73v1.42h-.73z"/>
        <path fill="#FFF" d="M156.017 18.883h.529v.961h-.529z"/>
    </g>
</svg>
