<svg xmlns="http://www.w3.org/2000/svg" width="221" height="30" viewBox="0 0 221 30">
    <g fill="none" fill-rule="evenodd">
        <path fill="#FFF" fill-rule="nonzero" d="M15.988 10.912h5.625v18.225h-5.625V10.912zm-.45-5.737c0-.9.318-1.669.956-2.306a3.143 3.143 0 0 1 2.306-.957c.9 0 1.669.32 2.306.957.638.637.957 1.406.957 2.306 0 .9-.32 1.669-.957 2.306a3.143 3.143 0 0 1-2.306.956c-.9 0-1.669-.318-2.306-.956a3.143 3.143 0 0 1-.956-2.306zM3.988 15.412H.275v-4.5h3.713V7.687c0-1 .087-1.943.262-2.83a5.748 5.748 0 0 1 1.013-2.345c.5-.675 1.218-1.206 2.156-1.593C8.356.53 9.588.337 11.113.337c.575 0 1.137.025 1.687.075.55.05 1.088.138 1.613.263l-.263 4.762a6.61 6.61 0 0 0-.9-.28 4.247 4.247 0 0 0-.937-.095c-.9 0-1.575.194-2.025.582-.45.387-.675 1.18-.675 2.38v2.888h4.162v4.5H9.613v13.725H3.988V15.412zm21.672-4.5h5.4v2.475h.075c.175-.35.425-.7.75-1.05.325-.35.713-.662 1.163-.937.45-.275.962-.5 1.537-.675a6.412 6.412 0 0 1 1.875-.263c1.425 0 2.575.22 3.45.657.875.437 1.556 1.043 2.044 1.818.487.775.819 1.688.994 2.738.175 1.05.262 2.187.262 3.412v10.05h-5.625v-8.925c0-.525-.019-1.068-.056-1.63a5.146 5.146 0 0 0-.338-1.557 2.686 2.686 0 0 0-.862-1.163c-.388-.3-.944-.45-1.669-.45-.725 0-1.312.132-1.762.394-.45.263-.794.613-1.032 1.05a4.293 4.293 0 0 0-.468 1.481c-.075.55-.113 1.125-.113 1.725v9.075H25.66V10.912zM58.617 26.85h-.075c-.625.975-1.456 1.675-2.494 2.1a8.574 8.574 0 0 1-3.281.637 8.46 8.46 0 0 1-2.456-.356 6.2 6.2 0 0 1-2.082-1.069 5.163 5.163 0 0 1-1.425-1.762c-.35-.7-.525-1.513-.525-2.438 0-1.05.194-1.937.582-2.662a5.196 5.196 0 0 1 1.575-1.8 7.82 7.82 0 0 1 2.268-1.106c.85-.263 1.732-.457 2.644-.582.913-.125 1.825-.2 2.738-.225a92.76 92.76 0 0 1 2.53-.037c0-1-.355-1.794-1.068-2.381-.712-.588-1.556-.882-2.531-.882-.925 0-1.769.194-2.531.582a6.913 6.913 0 0 0-2.044 1.593l-3-3.075a10.325 10.325 0 0 1 3.675-2.193c1.4-.488 2.85-.732 4.35-.732 1.65 0 3.006.207 4.069.62 1.062.412 1.912 1.018 2.55 1.818.637.8 1.081 1.781 1.33 2.944.251 1.162.376 2.506.376 4.03v9.263h-5.175V26.85zm-1.388-5.7c-.424 0-.956.019-1.593.056a8.073 8.073 0 0 0-1.838.319 4.087 4.087 0 0 0-1.5.787c-.412.35-.619.838-.619 1.463 0 .675.288 1.175.863 1.5a3.609 3.609 0 0 0 1.8.487c.55 0 1.081-.075 1.594-.225.512-.15.968-.362 1.368-.637.4-.275.72-.625.957-1.05.237-.425.356-.925.356-1.5v-1.2h-1.388zm10.082-10.238h5.4v2.475h.075c.175-.35.425-.7.75-1.05a5.46 5.46 0 0 1 1.162-.937c.45-.275.963-.5 1.538-.675a6.413 6.413 0 0 1 1.875-.263c1.425 0 2.575.22 3.45.657.875.437 1.556 1.043 2.044 1.818.487.775.819 1.688.993 2.738a20.76 20.76 0 0 1 .263 3.412v10.05h-5.625v-8.925c0-.525-.019-1.068-.056-1.63a5.146 5.146 0 0 0-.338-1.557 2.688 2.688 0 0 0-.862-1.163c-.388-.3-.944-.45-1.67-.45-.724 0-1.312.132-1.762.394-.45.263-.793.613-1.03 1.05a4.29 4.29 0 0 0-.47 1.481c-.075.55-.112 1.125-.112 1.725v9.075H67.31V10.912zm33.857 5.888c-.275-.4-.662-.731-1.163-.994a3.418 3.418 0 0 0-1.612-.394c-1.425 0-2.532.425-3.32 1.275-.787.85-1.18 1.963-1.18 3.338s.393 2.487 1.18 3.337c.788.85 1.895 1.275 3.32 1.275.625 0 1.162-.137 1.612-.412.45-.275.838-.6 1.163-.975l3.712 3.9a7.173 7.173 0 0 1-3.094 1.894c-1.187.362-2.318.543-3.393.543-1.4 0-2.72-.225-3.957-.675-1.237-.45-2.312-1.093-3.225-1.93a9.067 9.067 0 0 1-2.156-3.02c-.525-1.175-.787-2.487-.787-3.937 0-1.45.262-2.763.787-3.938a9.067 9.067 0 0 1 2.156-3.018c.913-.838 1.988-1.482 3.225-1.932a11.488 11.488 0 0 1 3.957-.675c1.075 0 2.206.182 3.393.544a7.172 7.172 0 0 1 3.094 1.894l-3.712 3.9zm22.984 9.187a8.977 8.977 0 0 1-3.413 2.663c-1.375.625-2.8.937-4.275.937-1.4 0-2.718-.225-3.956-.675-1.237-.45-2.312-1.093-3.225-1.93a9.063 9.063 0 0 1-2.156-3.02c-.525-1.175-.788-2.487-.788-3.937 0-1.45.263-2.763.788-3.938a9.062 9.062 0 0 1 2.156-3.018c.913-.838 1.988-1.482 3.225-1.932a11.485 11.485 0 0 1 3.956-.675c1.3 0 2.482.225 3.544.675a7.383 7.383 0 0 1 2.7 1.932c.738.837 1.306 1.843 1.706 3.018.4 1.175.6 2.488.6 3.938v1.762h-13.05c.225 1.075.713 1.932 1.463 2.57.75.637 1.675.955 2.775.955.925 0 1.706-.206 2.344-.618a6.3 6.3 0 0 0 1.668-1.594l3.938 2.887zm-4.763-8.025c.025-.95-.287-1.762-.937-2.437-.65-.675-1.488-1.013-2.513-1.013-.625 0-1.175.1-1.65.3-.475.2-.88.457-1.218.77a3.37 3.37 0 0 0-.788 1.087 3.578 3.578 0 0 0-.319 1.293h7.425zm9.032-7.05h5.625v2.925h.075c.6-1.125 1.313-1.968 2.138-2.53.825-.563 1.862-.845 3.112-.845.325 0 .65.013.975.038.325.025.625.075.9.15v5.137a8.5 8.5 0 0 0-1.181-.28 7.643 7.643 0 0 0-1.219-.095c-1.075 0-1.925.15-2.55.45-.625.3-1.106.72-1.444 1.257-.337.537-.556 1.18-.656 1.93-.1.75-.15 1.576-.15 2.476v7.612h-5.625V10.912zm11.924 15c0-.475.087-.925.263-1.35.174-.425.418-.793.73-1.106a3.35 3.35 0 0 1 1.107-.731 3.508 3.508 0 0 1 1.35-.263c.475 0 .925.088 1.35.263.425.175.794.419 1.106.731.313.313.556.681.732 1.106.174.425.262.875.262 1.35 0 .475-.088.925-.262 1.35a3.352 3.352 0 0 1-.732 1.107 3.353 3.353 0 0 1-1.106.73 3.512 3.512 0 0 1-1.35.263 3.51 3.51 0 0 1-1.35-.262 3.351 3.351 0 0 1-1.106-.731 3.345 3.345 0 0 1-.731-1.107 3.506 3.506 0 0 1-.263-1.35zm23.32-9.112c-.274-.4-.662-.731-1.162-.994a3.418 3.418 0 0 0-1.612-.394c-1.425 0-2.531.425-3.319 1.275-.787.85-1.181 1.963-1.181 3.338s.394 2.487 1.181 3.337c.788.85 1.894 1.275 3.319 1.275.625 0 1.162-.137 1.612-.412.45-.275.838-.6 1.163-.975l3.712 3.9a7.174 7.174 0 0 1-3.093 1.894c-1.188.362-2.32.543-3.394.543-1.4 0-2.719-.225-3.956-.675-1.238-.45-2.313-1.093-3.225-1.93a9.063 9.063 0 0 1-2.157-3.02c-.525-1.175-.787-2.487-.787-3.937 0-1.45.262-2.763.787-3.938a9.062 9.062 0 0 1 2.157-3.018c.912-.838 1.987-1.482 3.225-1.932a11.485 11.485 0 0 1 3.956-.675c1.075 0 2.206.182 3.394.544a7.173 7.173 0 0 1 3.093 1.894l-3.712 3.9zm27.926-5.888h5.4v2.475h.075c.175-.35.426-.7.75-1.05a5.45 5.45 0 0 1 1.163-.937c.45-.275.962-.5 1.537-.675a6.413 6.413 0 0 1 1.875-.263c1.275 0 2.407.263 3.394.788.988.525 1.731 1.35 2.231 2.475.65-1.175 1.438-2.013 2.363-2.513s2.062-.75 3.412-.75c1.225 0 2.257.207 3.094.62.838.412 1.5.974 1.988 1.687.487.712.837 1.55 1.05 2.512.212.963.318 1.994.318 3.094v10.762h-5.625V18.525c0-.85-.18-1.581-.543-2.194-.363-.612-1.007-.919-1.932-.919-.65 0-1.193.107-1.631.32a2.684 2.684 0 0 0-1.05.88c-.262.375-.45.813-.562 1.313a7.133 7.133 0 0 0-.17 1.575v9.637h-5.624V19.5c0-.325-.013-.725-.038-1.2a4.786 4.786 0 0 0-.262-1.35 2.58 2.58 0 0 0-.732-1.088c-.337-.3-.83-.45-1.48-.45-.726 0-1.313.132-1.763.394-.45.263-.794.613-1.031 1.05a4.29 4.29 0 0 0-.47 1.481c-.074.55-.112 1.125-.112 1.725v9.075h-5.625V10.912z"/>
        <path fill="#FFF" d="M168.133 19.673c0-5.61 4.547-10.157 10.157-10.157s10.156 4.547 10.156 10.157c0 5.609-4.547 10.156-10.156 10.156-5.61 0-10.157-4.547-10.157-10.156z"/>
        <path fill="#2098CE" d="M172.615 19.673a5.675 5.675 0 1 1 11.35 0 5.675 5.675 0 0 1-11.35 0z"/>
        <path fill="#FFF" d="M173.518 19.673a4.771 4.771 0 1 1 9.543 0 4.771 4.771 0 0 1-9.543 0z"/>
        <path fill="#2098CE" d="M180.612 24.024l.675-.487 3.39 4.702-.674.487zM173.833 18.894h1.83v3.917h-1.83z"/>
        <path fill="#2098CE" d="M174.655 22.155h1.008v1.53h-1.008zM176.181 16.986h1.931V23.7h-1.93z"/>
        <path fill="#2098CE" d="M176.181 23.685h1.931v.824h-1.93zM178.646 20.437h1.853v4.336h-1.853zM181.005 18.126h1.86v4.03h-1.86z"/>
        <path fill="#2098CE" d="M181.005 21.992h1.155v1.693h-1.155z"/>
        <path fill="#2098CE" d="M181.903 21.746h.626v.96h-.626z"/>
    </g>
</svg>
