<svg xmlns="http://www.w3.org/2000/svg" width="30" height="30" viewBox="0 0 30 30">
    <g fill="none" fill-rule="evenodd">
        <path fill="#FFF" fill-rule="nonzero" d="M12.255 22.913c6.652 0 10.29-5.513 10.29-10.29 0-.158 0-.315-.008-.465a7.41 7.41 0 0 0 1.808-1.875 7.34 7.34 0 0 1-2.077.57 3.614 3.614 0 0 0 1.59-2.003 7.324 7.324 0 0 1-2.296.878 3.6 3.6 0 0 0-2.64-1.14 3.617 3.617 0 0 0-3.615 3.615c0 .285.03.562.098.825a10.26 10.26 0 0 1-7.455-3.78 3.628 3.628 0 0 0-.488 1.814 3.6 3.6 0 0 0 1.613 3.008 3.553 3.553 0 0 1-1.635-.45v.045a3.62 3.62 0 0 0 2.902 3.548 3.605 3.605 0 0 1-1.635.06 3.611 3.611 0 0 0 3.375 2.512 7.27 7.27 0 0 1-5.355 1.492 10.076 10.076 0 0 0 5.528 1.635"/>
    </g>
</svg>
